<?xml version="1.0" encoding="utf-8"?>
<!-- Generator: Adobe Illustrator 22.0.0, SVG Export Plug-In . SVG Version: 6.00 Build 0)  -->
<svg version="1.1" id="Capa_1" xmlns="http://www.w3.org/2000/svg" xmlns:xlink="http://www.w3.org/1999/xlink" x="0px" y="0px"
	 viewBox="0 0 105.6 90" style="enable-background:new 0 0 105.6 90;" xml:space="preserve">
<style type="text/css">
	.st0{fill:#FFFFFF;fill-opacity:0;}
	.st1{fill:#FFFFFF;}
	.st2{fill:#FF85E0;}
	.st3{font-family:'Montserrat-SemiBold';}
	.st4{font-size:9.5737px;}
	.st5{font-size:6.608px;}
</style>
<g>
	<g>
		<rect x="31.6" y="38.9" class="st0" width="24" height="24"/>
		<path class="st1" d="M52.7,45.9c-0.4-0.6-1-1-1.7-1H38.2l-0.6-2.3c-0.1-0.4-0.5-0.8-1-0.7h-2c-0.6,0-1,0.4-1,1s0.4,1,1,1h1.2
			l2.8,10.3c0.1,0.4,0.5,0.8,1,0.7h9c0.4,0,0.7-0.2,0.9-0.5l3.3-6.6C53,47.2,53,46.5,52.7,45.9z M48,52.9h-7.6l-1.6-6H51L48,52.9z"
			/>
		<circle class="st1" cx="39.1" cy="58.4" r="1.5"/>
		<circle class="st1" cx="49.1" cy="58.4" r="1.5"/>
	</g>
</g>
<g>
	<path class="st2" d="M78.7,32.3c0,10.5-6.2,19.5-15.2,23.6c-1.7,0.8-3.4,1.4-5.3,1.8c0,0,0,0,0,0c-0.3,0.1-0.5,0.1-0.8,0.2
		c-1.5,0.3-3,0.4-4.6,0.4c-1.1,0-2.3-0.1-3.4-0.2c-0.5-0.1-1-0.1-1.5-0.2c-3.2-0.6-6.2-1.8-8.9-3.5c-0.5-0.3-1-0.6-1.4-1
		c0,0,0,0,0,0c-6.5-4.7-10.8-12.4-10.8-21C26.9,18,38.5,6.4,52.8,6.4c9.8,0,18.4,5.5,22.8,13.6h0C77.6,23.7,78.7,27.9,78.7,32.3z"/>
	<path class="st1" d="M78.7,32.3c0,10.5-6.2,19.5-15.2,23.6c-0.9,0.2-1.8,0.3-2.8,0.4c-0.3,0-0.6,0.1-1,0.1c-0.3,0-0.6,0-1,0
		c-0.6,0-1.3,0-1.9,0l-0.1,0l-0.3,0l-0.1,0l-0.2,0l-0.4,0L55,56.4c-0.5,0-1.3-0.2-2-0.3c-0.4-0.1-0.7-0.1-1.1-0.2
		c-0.4-0.1-0.7-0.2-1-0.3l-1-0.3l-0.5-0.1L48.8,55c-0.6-0.3-1.3-0.5-1.9-0.8c-0.6-0.3-1.3-0.6-1.9-1c-4.9-2.8-8.9-7.5-10.9-12.9
		c-1-2.7-1.5-5.7-1.5-8.6l0-0.3v-0.1c0,0,0-0.2,0-0.2l0,0l0-0.5l0.1-1c0-0.1,0-0.1,0-0.2l0-0.3l0.1-0.6l0.2-1.2
		c0.2-0.7,0.4-1.5,0.6-2.1l0.4-1c0.1-0.2,0.1-0.3,0.2-0.5l0.3-0.5c1.3-2.7,3.2-5,5.5-6.8c2.3-1.8,5-3,7.8-3.6
		c1.4-0.3,2.8-0.4,4.2-0.4h0.1l0.1,0c0,0,0.2,0,0.2,0l0.2,0l0.5,0c0.3,0,0.6,0,1,0.1l1.1,0.2c0.4,0.1,0.7,0.2,1,0.3
		c0.7,0.2,1.3,0.5,2,0.7l0.9,0.5c0.2,0.1,0.3,0.2,0.5,0.2l0.4,0.3c1.2,0.7,2.2,1.7,3.1,2.6c0.9,1,1.7,2.1,2.3,3.3
		c0.6,1.2,1.1,2.4,1.3,3.7c0.2,0.6,0.2,1.3,0.3,1.9c0.1,0.3,0,0.6,0,0.9l0,0.5l0,0.2v0.1c0,0.2,0,0.1,0,0.1V28l-0.1,0.8
		c0,0.1,0,0.3-0.1,0.5l-0.1,0.5l-0.1,0.5L67,30.7c-0.1,0.3-0.2,0.6-0.3,0.9c-0.8,2.3-2.4,4.3-4.2,5.6c-1.8,1.4-4,2.1-6,2.3
		c-0.3,0-0.5,0-0.8,0l-0.4,0h-0.1l-0.1,0l-0.2,0c-0.2,0-0.5,0-0.7-0.1c-0.3,0-0.5-0.1-0.8-0.1c-1-0.2-1.9-0.6-2.7-1.1
		c-0.8-0.5-1.5-1.1-2.1-1.7c-0.6-0.7-1.1-1.4-1.5-2.1c-0.7-1.5-1-3-0.9-4.5c0-0.7,0.2-1.4,0.4-2c0.2-0.6,0.5-1.2,0.8-1.6
		c0.6-1,1.4-1.7,2.2-2.1c0.8-0.5,1.5-0.7,2.1-0.9c0.2,0,0.3-0.1,0.4-0.1c0.1,0,0.3,0,0.4,0c0.2,0,0.4,0,0.6,0c0.3,0,0.5,0,0.5,0
		s-0.2,0-0.5,0c-0.2,0-0.3,0-0.6,0.1c-0.1,0-0.2,0-0.4,0.1c-0.1,0-0.3,0.1-0.4,0.1c-0.6,0.2-1.3,0.5-2,1c-0.7,0.5-1.4,1.2-1.9,2.2
		c-0.3,0.5-0.5,1-0.7,1.6c-0.1,0.6-0.2,1.2-0.2,1.9c0,1.3,0.4,2.7,1.1,4c0.4,0.6,0.8,1.3,1.4,1.8c0.6,0.5,1.2,1,1.9,1.4
		c0.7,0.4,1.5,0.6,2.3,0.8c0.2,0,0.4,0,0.6,0.1c0.2,0,0.5,0,0.7,0h0.2l0.1,0c0,0,0,0,0,0l0,0l0.3,0c0.2,0,0.4,0,0.7-0.1
		c1.8-0.3,3.5-1,5-2.2c1.5-1.2,2.6-2.9,3.1-4.8c0.1-0.2,0.1-0.5,0.2-0.7l0.1-0.4l0-0.3l0-0.3c0-0.1,0-0.2,0-0.4l0-0.8l-0.1-0.7
		c0-0.3,0-0.5-0.1-0.8c-0.1-0.5-0.2-1-0.3-1.5c-0.3-1-0.7-2-1.2-2.9c-0.6-0.9-1.2-1.7-2-2.5c-0.8-0.7-1.6-1.4-2.6-1.9l-0.3-0.2
		c-0.1-0.1-0.2-0.1-0.4-0.2L57.1,17c-0.5-0.1-1-0.4-1.5-0.4c-0.3,0-0.5-0.1-0.8-0.2L54,16.3c-0.2,0-0.6,0-0.9,0l-0.5,0l-0.2,0l0,0
		l0,0l-0.1,0c-1.1,0.1-2.2,0.2-3.3,0.5c-2.1,0.6-4.1,1.7-5.8,3.1c-1.6,1.5-2.9,3.3-3.8,5.3l-0.2,0.4c0,0.1-0.1,0.3-0.1,0.4L39,26.8
		c-0.2,0.5-0.2,1.1-0.4,1.6l-0.1,0.7l0,0.4l0,0.2c0,0.1,0,0.2,0,0.2l0,1.4v0.1l0-0.1l0,0.1l0,0.2c0.1,2.2,0.6,4.4,1.5,6.3
		c1.7,4,4.9,7.1,8.5,8.9c0.5,0.2,0.9,0.4,1.4,0.6c0.5,0.2,0.9,0.3,1.4,0.5l0.3,0.1l0.4,0.1l0.7,0.2c0.2,0,0.5,0.1,0.7,0.1l0.6,0.1
		c0.4,0,0.8,0.1,1.4,0.1l0.9,0l0.4,0l0.2,0l-0.1,0l0.1,0c0.5,0,1-0.1,1.4-0.1l0.7-0.1c0.2,0,0.5-0.1,0.7-0.1c3.7-0.7,7-2.1,9.5-4.1
		c2.6-1.9,4.5-4.2,5.8-6.4c0.3-0.6,0.6-1.1,0.9-1.6c0.2-0.5,0.5-1.1,0.7-1.6c0.2-0.5,0.3-1,0.5-1.5c0.1-0.2,0.2-0.5,0.2-0.7
		c0-0.2,0.1-0.5,0.1-0.7c0.1-0.4,0.2-0.9,0.3-1.3c0-0.4,0.1-0.7,0.1-1c0.3-4.2-2.2-9.3-2.2-9.3h0C77.6,23.7,78.7,27.9,78.7,32.3z"/>
	<path class="st2" d="M37.7,53.3c0,0,3.1,1.1,2.9,4.9c-0.2,3.7-1.2,7.4,1.8,8.2c2.9,0.7,5-1.8,3.8-5.2c-1.2-3.5,1.5-3.7,3.3-3.1
		c1.8,0.6,1,2.5,3.7,2.5c2.7,0,2.3-2.6,5.1-2.9c0,0-18.3-2-20.5-4.6V53.3z"/>
	<text transform="matrix(1 0 0 1 33.4648 74.4297)" class="st2 st3 st4">CANDY</text>
	<text transform="matrix(1 0 0 1 41.9101 81.8056)" class="st2 st3 st5">SHOP</text>
</g>
</svg>
